<svg version="1.1" id="Layer_1" xmlns="http://www.w3.org/2000/svg" xmlns:xlink="http://www.w3.org/1999/xlink" x="0px" y="0px"
	 width="100%" viewBox="0 0 1024 1024" enable-background="new 0 0 1024 1024" xml:space="preserve">
<path fill="#FDFDFD" opacity="1.000000" stroke="none" 
	d="
M445.000000,1025.000000 
	C296.666656,1025.000000 148.833328,1025.000000 1.000000,1025.000000 
	C1.000000,683.666687 1.000000,342.333344 1.000000,1.000000 
	C342.333344,1.000000 683.666687,1.000000 1025.000000,1.000000 
	C1025.000000,342.333344 1025.000000,683.666687 1025.000000,1025.000000 
	C831.833313,1025.000000 638.666687,1025.000000 445.000000,1025.000000 
M527.305725,617.898071 
	C527.305725,632.647949 527.305725,647.397766 527.305725,662.076538 
	C532.079468,662.076538 535.701599,662.076538 539.714294,662.076538 
	C539.714294,646.860413 539.714294,631.904175 540.693359,616.925293 
	C546.253235,616.925293 551.813049,616.925293 557.248779,616.925293 
	C557.248779,613.223877 557.248779,610.302246 557.248779,607.264526 
	C541.185791,607.264526 525.474426,607.264526 509.462433,607.264526 
	C509.462433,610.590271 509.462433,613.626770 509.462433,616.963318 
	C515.598572,616.963318 521.388062,616.963318 527.305725,617.898071 
M499.762573,482.385132 
	C502.887878,477.302551 506.013214,472.219971 509.674011,466.724976 
	C514.253601,458.867859 518.833130,451.010742 523.910889,442.742920 
	C529.923462,432.322754 535.935974,421.902588 542.435852,411.116760 
	C544.932678,407.239410 547.429443,403.362061 549.877563,400.677765 
	C549.767883,401.496552 549.679749,402.318848 549.545349,403.133575 
	C547.077759,418.087128 544.604553,433.039795 541.954651,448.653839 
	C541.978577,449.106628 542.002441,449.559418 541.637024,450.609497 
	C541.464783,451.736267 541.292480,452.863037 540.928284,454.648651 
	C540.951904,455.101898 540.975525,455.555145 540.553955,456.650726 
	C539.989746,460.770813 539.425598,464.890869 538.463196,469.681396 
	C537.145691,477.198395 535.636658,484.687866 534.551331,492.238220 
	C532.406433,507.160004 541.316528,524.106079 554.018433,529.365784 
	C555.086365,523.957642 556.258545,518.614685 557.174377,513.228149 
	C558.252319,506.888214 559.108093,500.510498 560.647095,493.900665 
	C561.754333,487.935181 562.861511,481.969696 564.043762,475.391937 
	C564.314758,473.925934 564.585754,472.459930 565.139099,470.400574 
	C566.116882,467.043549 567.376343,463.739258 568.017090,460.319061 
	C569.630432,451.707336 570.645386,442.974548 572.487671,434.416779 
	C575.089783,422.329865 578.220825,410.356781 581.151611,398.228119 
	C570.250305,398.228119 560.185730,398.228119 549.297546,397.738800 
	C535.375854,397.232666 521.626831,398.221741 508.753662,404.039551 
	C499.786530,408.092041 491.244995,412.943909 485.686646,422.500031 
	C483.190216,427.031097 480.693756,431.562195 477.730225,436.586334 
	C476.410675,438.844452 475.091156,441.102539 473.269318,442.852600 
	C468.542145,433.478638 463.815002,424.104645 459.179626,413.958191 
	C457.571350,410.100616 455.963074,406.243011 454.207855,401.712769 
	C449.813385,391.867432 445.503265,381.983368 441.007874,372.184357 
	C429.617249,347.355164 395.764709,342.996643 377.557922,364.354584 
	C376.977020,365.221680 376.396118,366.088776 375.254730,367.345062 
	C372.826111,374.226562 370.397491,381.108063 367.492920,388.523468 
	C365.738983,393.505463 363.950531,398.475647 362.238617,403.472076 
	C359.101471,412.628357 356.009460,421.800079 352.400452,431.468048 
	C346.995697,446.895782 341.285675,462.225037 336.269470,477.778076 
	C330.934143,494.320526 324.093903,509.824097 310.443451,521.322937 
	C307.116852,524.125305 303.429962,526.500000 299.044098,529.702698 
	C310.204376,529.702698 320.316620,530.207825 330.359711,529.589661 
	C347.327179,528.545227 361.065857,520.985107 371.854828,507.714233 
	C380.240082,497.399963 382.494812,484.595917 386.963440,472.691895 
	C388.735718,467.970642 389.791565,462.980438 391.823486,457.867371 
	C395.801514,446.918121 399.779572,435.968872 404.121887,424.373352 
	C405.151672,421.569733 406.181488,418.766083 407.927612,415.955078 
	C408.921265,417.408752 410.120026,418.763397 410.877289,420.331268 
	C419.672607,438.542206 428.480560,456.747803 437.127747,475.029266 
	C448.039246,498.097809 480.676941,502.969635 498.668457,483.789764 
	C498.875458,483.448944 499.082458,483.108124 499.762573,482.385132 
M497.675110,401.877991 
	C508.218750,394.170105 520.216248,390.662445 533.080994,390.025360 
	C542.701355,389.548950 552.343506,389.511932 562.868774,389.570953 
	C572.132385,389.570953 581.396057,389.570953 591.239258,389.570953 
	C589.465149,398.512634 587.829163,406.758179 585.908752,415.756531 
	C583.123657,429.769653 580.338623,443.782776 577.202881,458.459106 
	C572.332153,482.258392 567.461487,506.057648 562.438660,530.599976 
	C566.631958,530.351196 569.761658,530.238098 572.877808,529.968750 
	C591.876770,528.326477 610.163269,514.444885 614.802979,497.174377 
	C617.816284,485.957611 619.580139,474.405182 622.229004,462.286987 
	C623.355408,456.552673 624.481812,450.818390 625.930054,444.455475 
	C628.496765,432.000458 631.063477,419.545471 633.929077,406.459320 
	C635.079529,400.963745 636.229919,395.468170 637.435242,389.710480 
	C646.772522,389.710480 655.749023,389.963776 664.705505,389.648376 
	C676.747131,389.224335 686.751526,384.342316 693.247314,373.989075 
	C695.565735,370.293976 696.302490,365.606506 697.994507,360.694580 
	C691.887756,360.694580 687.280273,360.694580 681.999695,360.694580 
	C681.999695,356.231689 681.999695,352.023376 681.999695,347.419891 
	C661.691223,347.419891 642.061523,347.363495 622.432373,347.447723 
	C614.622559,347.481262 606.814026,347.825928 598.153198,347.885468 
	C596.429932,347.940613 594.706604,347.995728 592.240967,347.787262 
	C588.171570,347.888672 584.102173,347.990082 579.100586,347.949646 
	C569.466064,347.933502 559.798706,347.433228 550.209167,348.081940 
	C544.412842,348.474030 538.737183,350.648773 532.298706,352.087433 
	C528.212830,354.896667 522.726379,356.822205 520.295105,360.675476 
	C511.918732,373.951050 504.608856,387.899597 496.907257,401.599945 
	C496.853210,401.696075 497.002747,401.906616 496.715454,401.944183 
	C496.805450,401.952484 496.895416,401.960754 497.675110,401.877991 
M372.889496,639.500000 
	C372.889496,628.757812 372.889496,618.015625 372.889496,607.735535 
	C365.122253,605.441833 360.625275,607.911926 357.873993,614.471313 
	C356.340027,618.128479 354.103943,621.498779 352.099915,624.949280 
	C348.787415,630.652527 345.406677,636.316040 341.671204,642.646179 
	C335.940338,632.653503 330.644470,623.440491 325.369629,614.215393 
	C320.734436,606.109009 320.744873,606.103027 311.085541,607.610474 
	C311.085541,625.748962 311.085541,643.945068 311.085541,662.015259 
	C314.833984,662.015259 318.277252,662.015259 322.323914,662.015259 
	C322.323914,651.267639 322.323914,640.841309 322.323914,630.414917 
	C328.009674,638.205139 332.675079,646.213135 337.362793,654.208130 
	C339.517914,657.883789 343.752869,657.987671 345.886688,654.403259 
	C347.754791,651.265259 349.508911,648.059387 351.374969,644.920044 
	C354.361450,639.895630 357.398834,634.901428 360.414673,629.894470 
	C360.823639,630.021912 361.232574,630.149292 361.641510,630.276672 
	C361.641510,640.828247 361.641510,651.379822 361.641510,662.083679 
	C365.692444,662.083679 369.123901,662.083679 372.886353,662.083679 
	C372.886353,654.741577 372.886353,647.620789 372.889496,639.500000 
M696.376587,662.267517 
	C698.002930,662.189880 699.629211,662.112244 701.093628,662.042297 
	C701.093628,652.219788 701.645935,642.739075 700.931641,633.354797 
	C700.273376,624.706848 693.201843,618.657837 684.610229,619.060120 
	C679.744751,619.287964 674.960083,621.241760 669.687134,622.528442 
	C669.687134,616.758362 669.687134,610.066711 669.687134,603.392212 
	C665.589478,603.392212 662.162720,603.392212 658.528503,603.392212 
	C658.528503,623.060547 658.528503,642.430481 658.528503,662.075684 
	C662.481262,662.075684 666.048279,662.075684 669.902100,662.075684 
	C669.902100,654.788818 669.838867,647.811890 669.919312,640.836609 
	C670.005127,633.389954 673.945679,629.275513 680.726257,629.360535 
	C687.056091,629.439880 689.552856,632.519897 689.609680,640.492371 
	C689.660400,647.601562 689.620361,654.711426 689.620361,662.270020 
	C691.936462,662.270020 693.723511,662.270020 696.376587,662.267517 
M412.242615,631.627502 
	C409.808075,637.399536 407.373566,643.171631 404.480103,650.031738 
	C400.446655,640.362671 396.964966,631.752441 393.211182,623.262512 
	C392.539978,621.744385 390.902039,619.941223 389.431061,619.641724 
	C386.605865,619.066528 383.580536,619.474182 379.835876,619.474182 
	C385.865387,633.254150 391.603943,646.100403 397.037323,659.074524 
	C397.858368,661.035095 398.181000,664.805664 397.118744,665.612732 
	C395.055115,667.180542 391.870605,667.569275 389.098907,667.785583 
	C387.683990,667.895996 386.157379,666.575623 384.352631,665.752014 
	C382.956940,668.329590 381.646362,670.749939 380.388184,673.073547 
	C388.223480,680.309448 400.507507,679.229126 405.897095,670.673218 
	C408.973419,665.789612 411.174103,660.317688 413.452332,654.975586 
	C418.380615,643.419495 423.105011,631.776367 427.938477,620.106750 
	C418.322632,618.199158 417.672516,618.528687 414.279205,626.782166 
	C413.709961,628.166748 413.144623,629.552856 412.242615,631.627502 
M585.172852,662.923401 
	C590.871765,662.105286 596.113220,660.427856 599.760925,655.497803 
	C596.536377,651.448364 593.605103,648.720154 588.148254,651.998047 
	C585.889343,653.354919 582.309204,652.987427 579.405151,652.683960 
	C575.030396,652.226868 571.757446,650.018982 570.537170,644.470703 
	C581.655212,644.470703 592.169434,644.470703 602.874146,644.470703 
	C602.874146,642.306763 602.984131,640.815002 602.856995,639.343750 
	C601.689758,625.837830 589.864441,616.776489 576.568176,619.161987 
	C563.549316,621.497864 555.703247,633.645325 559.043518,646.294312 
	C561.972107,657.384460 570.385742,662.945679 585.172852,662.923401 
M479.234619,637.838257 
	C473.126953,638.310913 467.606750,639.795044 465.467316,646.493225 
	C463.950592,651.241638 465.514038,657.230774 469.267670,659.574829 
	C477.293488,664.586609 485.321960,663.978333 493.098541,658.658875 
	C495.584198,665.283447 500.529846,661.014099 504.221893,662.056641 
	C504.221893,652.102112 504.386566,642.795776 504.153137,633.499390 
	C504.034698,628.783508 501.853729,624.843750 497.704712,622.273132 
	C489.213226,617.012146 475.095520,618.068848 466.978302,624.691101 
	C468.189880,627.228210 469.427246,629.819275 470.661682,632.404175 
	C483.959564,626.053345 492.665955,627.932434 492.458862,637.218872 
	C488.365967,637.399597 484.240967,637.581848 479.234619,637.838257 
M624.714600,651.029480 
	C619.141113,645.763062 618.316467,637.556335 622.828430,632.259155 
	C627.182678,627.147339 634.351929,627.727600 642.245056,633.911316 
	C644.950989,632.570251 647.703247,631.206238 650.427307,629.856201 
	C646.404541,621.073608 635.671326,616.806824 625.401306,619.426697 
	C613.904663,622.359497 607.253845,631.312988 607.967224,642.896973 
	C608.614136,653.400879 617.198853,661.621521 628.843384,662.887695 
	C638.935730,663.985168 647.966492,659.203491 650.273926,651.429077 
	C647.464661,650.111633 644.636414,648.785339 641.847412,647.477417 
	C636.081299,653.473145 632.569336,654.306580 624.714600,651.029480 
M438.569092,662.278320 
	C440.679047,662.278320 442.789032,662.278320 445.417389,662.278320 
	C445.417389,654.744568 445.312592,647.789612 445.446625,640.839233 
	C445.582367,633.800598 449.142944,630.206482 456.150513,629.658386 
	C457.268402,629.570923 458.382629,629.437073 459.631592,629.311218 
	C459.631592,625.774963 459.631592,622.529297 459.631592,617.770203 
	C454.248413,619.817810 449.633331,621.573242 445.088348,623.302002 
	C444.865326,622.344299 444.546295,620.974426 444.251801,619.709717 
	C440.614258,619.709717 437.369629,619.709717 433.980408,619.709717 
	C433.980408,634.000916 433.980408,647.916443 433.980408,662.006348 
	C435.413574,662.111267 436.552734,662.194702 438.569092,662.278320 
M624.873840,694.768616 
	C625.215210,695.338989 625.500549,695.953186 625.906921,696.472656 
	C628.584473,699.895508 632.047058,700.337219 635.723145,698.580750 
	C639.128296,696.953674 640.519775,693.880676 639.718628,690.268433 
	C638.874878,686.463989 636.226868,684.172852 632.244690,684.112244 
	C627.974182,684.047241 625.495056,686.407166 624.651123,690.578491 
	C624.422241,691.709900 623.970032,692.796082 623.948181,692.865112 
	C620.188538,691.088074 616.836365,689.701233 613.700134,687.931702 
	C612.290894,687.136597 611.313232,685.576538 610.139771,684.363586 
	C611.698853,683.369019 613.166748,681.796021 614.841003,681.532288 
	C616.755188,681.230774 618.852844,682.093689 621.745728,682.605408 
	C619.200623,678.095276 615.595154,678.558105 612.747070,679.352966 
	C610.743042,679.912415 608.165710,682.208740 607.887268,684.040100 
	C607.634033,685.705933 609.911438,688.017334 611.509277,689.605591 
	C612.462097,690.552673 614.417419,690.407593 615.627380,691.202148 
	C616.981445,692.091309 618.002502,693.487610 619.168457,694.663208 
	C617.686768,695.501770 616.240479,696.950134 614.715210,697.038696 
	C612.311096,697.178345 609.854004,696.404114 606.891418,695.932739 
	C611.484619,701.095947 618.282776,700.866089 621.727844,696.081421 
	C622.353821,695.211975 623.472900,694.697571 624.873840,694.768616 
M356.206482,697.624817 
	C357.765198,693.232727 359.323914,688.840698 360.882660,684.448608 
	C360.313049,684.280579 359.743439,684.112549 359.173828,683.944519 
	C357.672241,687.891846 356.170654,691.839111 354.497620,696.237122 
	C352.568420,691.773071 350.833588,687.758789 348.570801,682.522827 
	C346.561340,687.606873 345.076904,691.362671 343.334076,695.772156 
	C341.346588,691.331970 339.609528,687.451172 337.872437,683.570374 
	C337.337311,683.861572 336.802155,684.152771 336.267029,684.443970 
	C338.357727,689.590881 340.448395,694.737854 342.539093,699.884766 
	C342.989502,699.792358 343.439911,699.700012 343.890320,699.607605 
	C345.360840,695.987244 346.831360,692.366943 348.726318,687.701599 
	C350.256500,691.650330 351.458252,694.662720 352.589752,697.701294 
	C353.403290,699.885986 354.409912,700.466248 356.206482,697.624817 
M430.200165,697.705933 
	C432.712769,693.322205 432.047638,691.009155 427.679901,689.231567 
	C426.457764,688.734192 424.978546,688.708191 423.919800,688.008301 
	C422.444122,687.032898 421.252869,685.627075 419.939911,684.405457 
	C421.695160,683.491516 423.369568,682.137146 425.229919,681.795593 
	C426.880951,681.492493 428.738434,682.314026 431.805023,682.878540 
	C428.366119,678.544312 424.927124,678.260864 421.809204,679.667358 
	C419.890350,680.533081 417.772644,682.937744 417.529480,684.875366 
	C417.353241,686.279724 419.935364,688.270691 421.614014,689.582153 
	C422.714813,690.442261 424.579926,690.283997 425.771881,691.078308 
	C427.099945,691.963440 428.052979,693.411194 429.169281,694.614075 
	C427.721588,695.516479 426.292694,697.125305 424.822021,697.164429 
	C422.272339,697.232361 419.696808,696.328552 416.742462,695.756836 
	C420.345978,700.368835 423.400726,700.853577 430.200165,697.705933 
M289.250427,697.131104 
	C286.283508,696.733582 283.316620,696.336121 280.178802,695.915771 
	C282.449310,699.045959 284.690186,700.413452 288.576080,699.343689 
	C291.040039,698.665283 293.014038,696.207214 295.207764,694.547302 
	C293.452240,692.658875 291.783508,690.676392 289.893829,688.933411 
	C289.238586,688.328979 287.894379,688.525269 287.113007,687.992188 
	C285.639435,686.986755 284.345886,685.717468 282.977509,684.557861 
	C284.818268,683.463623 286.545441,681.915894 288.535370,681.417603 
	C290.149445,681.013489 292.079132,681.869873 293.868835,682.167236 
	C291.091217,678.712830 287.559448,678.243896 284.274445,679.937012 
	C282.534668,680.833618 280.897766,683.210449 280.590942,685.138123 
	C280.399475,686.341003 282.548431,688.302307 284.061523,689.285461 
	C285.673035,690.332458 287.872894,690.425171 289.637848,691.295532 
	C292.728973,692.819763 293.799347,694.756409 289.250427,697.131104 
M581.420044,697.090393 
	C585.724792,698.081787 590.029602,699.073181 594.270264,700.049805 
	C594.270264,691.819946 594.270264,684.784241 594.270264,677.748474 
	C593.832886,677.729492 593.395508,677.710571 592.958130,677.691650 
	C592.673218,680.140198 592.388306,682.588806 592.103333,685.037354 
	C591.875427,684.582764 591.647522,684.128174 591.419617,683.673584 
	C588.176147,684.556213 584.314270,684.632019 581.844971,686.524597 
	C578.721252,688.918884 578.854919,692.941711 581.420044,697.090393 
M552.787292,687.699463 
	C553.294922,692.238464 549.387573,689.160583 548.050415,690.453918 
	C546.436829,692.014526 543.772949,693.583130 543.624390,695.324097 
	C543.361023,698.411499 546.147461,699.708679 549.156860,699.620544 
	C551.360352,699.556091 553.557617,699.282410 556.143005,699.070312 
	C556.143005,696.130066 556.682068,693.016541 555.972717,690.219727 
	C555.403259,687.974060 553.709778,685.063354 551.806580,684.357117 
	C549.642822,683.554321 546.691650,684.873718 544.082703,685.270630 
	C544.178650,685.735229 544.274658,686.199829 544.370605,686.664429 
	C546.970093,686.792542 549.569641,686.920654 552.787292,687.699463 
M366.567566,690.841675 
	C363.687775,691.836426 361.486145,694.052307 363.067139,696.726013 
	C364.078247,698.435913 367.320862,699.124878 369.699188,699.627441 
	C371.413605,699.989807 373.352234,699.291016 375.629883,699.011658 
	C375.629883,696.656982 375.477478,694.340820 375.666534,692.052917 
	C375.933533,688.822144 375.577271,685.509277 372.126465,684.747620 
	C369.344452,684.133423 366.212891,685.102722 363.236420,685.369446 
	C363.226593,686.059753 363.216736,686.750000 363.206909,687.440308 
	C366.474640,687.790527 371.066742,683.896667 373.089508,689.775269 
	C370.911713,690.121948 369.126465,690.406189 366.567566,690.841675 
M514.976135,698.910461 
	C515.688416,698.304443 516.400635,697.698425 518.289551,696.091309 
	C512.869141,696.750000 508.270935,699.297302 505.857239,692.832520 
	C510.301727,692.832520 514.197327,692.832520 518.293640,692.832520 
	C518.367920,687.961487 516.389832,684.966614 512.128540,684.115112 
	C508.185089,683.327148 505.399506,685.495117 503.890137,689.028931 
	C502.421906,692.466431 503.059662,695.989685 506.265594,697.777100 
	C508.490723,699.017578 511.588501,698.692871 514.976135,698.910461 
M439.550446,684.188965 
	C435.849823,685.904785 433.600922,688.663574 434.392456,692.860352 
	C435.101685,696.620911 437.399933,699.343628 441.527954,699.280212 
	C443.605377,699.248352 445.668060,698.255493 447.737396,697.697205 
	C447.613953,697.239746 447.490540,696.782288 447.367126,696.324829 
	C439.795410,697.857178 438.938843,697.593811 437.494324,692.810181 
	C441.388153,692.810181 445.137268,692.810181 448.833344,692.810181 
	C449.192322,686.295105 446.693207,683.902161 439.550446,684.188965 
M398.424316,684.041138 
	C393.918457,684.204651 391.388367,686.486694 390.916138,691.008057 
	C390.522888,694.772644 392.022400,697.599121 395.491394,698.958984 
	C398.801941,700.256714 402.004852,699.973022 405.717773,696.194397 
	C400.597778,696.554260 395.944519,699.598633 393.657166,693.181335 
	C398.061249,692.889893 402.012634,692.628479 406.255829,692.347656 
	C404.828369,688.068665 403.729584,684.559326 398.424316,684.041138 
M660.675110,699.232483 
	C662.227295,699.232483 663.779480,699.232483 665.005127,699.232483 
	C665.005127,693.828918 665.005127,688.854614 665.005127,683.880310 
	C664.388489,683.894165 663.771912,683.908020 663.155273,683.921875 
	C663.155273,686.612915 663.100525,689.305298 663.169373,691.994568 
	C663.252014,695.224854 661.805176,697.120911 658.536316,697.202209 
	C655.181091,697.285583 653.810120,695.352661 653.883545,692.124329 
	C653.947754,689.303955 653.896973,686.480896 653.896973,683.659058 
	C653.047852,683.658142 652.198792,683.657166 651.349670,683.656189 
	C651.349670,686.486328 651.279663,689.318542 651.364380,692.146179 
	C651.538208,697.947815 653.896484,699.940918 660.675110,699.232483 
M561.570007,694.240845 
	C561.684448,696.044006 561.798950,697.847229 561.913391,699.650391 
	C562.459412,699.640015 563.005432,699.629639 563.551453,699.619263 
	C563.715332,696.747559 563.318420,693.680115 564.229614,691.069275 
	C564.897400,689.155762 567.073059,686.889221 568.949341,686.477112 
	C571.969421,685.813904 573.121277,688.386658 573.204041,691.252686 
	C573.285950,694.091248 573.462097,696.927063 573.596924,699.764038 
	C574.329468,699.731873 575.062012,699.699707 575.794556,699.667542 
	C575.471436,695.546021 576.024231,691.096313 574.630432,687.375916 
	C572.230591,680.970032 566.148438,685.999756 561.560608,683.989258 
	C561.560608,687.392334 561.560608,690.372742 561.570007,694.240845 
M719.683533,684.962708 
	C716.142090,684.714783 712.600586,684.466797 709.113037,684.222595 
	C709.113037,689.440796 709.113037,694.414246 709.113037,699.387695 
	C709.698730,699.403137 710.284424,699.418518 710.870117,699.433960 
	C710.870117,696.896423 710.831421,694.358215 710.879761,691.821594 
	C710.942505,688.530945 712.571899,686.205750 715.895874,686.182068 
	C719.268250,686.157959 720.111023,688.726013 720.108459,691.736938 
	C720.106262,694.272461 720.360413,696.808167 720.501099,699.343811 
	C721.099609,699.283020 721.698059,699.222290 722.296509,699.161499 
	C721.976013,694.536560 724.400330,689.662415 719.683533,684.962708 
M727.510132,691.046448 
	C730.271179,692.330566 733.032288,693.614746 735.793396,694.898926 
	C735.643005,695.433777 735.492676,695.968628 735.342285,696.503479 
	C732.341736,696.503479 729.341125,696.503479 726.340515,696.503479 
	C726.258362,697.072632 726.176147,697.641785 726.093933,698.210876 
	C728.283081,698.668579 730.643738,699.849426 732.613586,699.382263 
	C734.618042,698.906860 736.237488,696.808411 738.025574,695.420654 
	C736.508057,693.947205 735.138672,692.261719 733.427185,691.066040 
	C731.999817,690.068848 730.171387,689.645813 728.520569,688.968506 
	C728.609558,688.332153 728.698486,687.695801 728.787476,687.059448 
	C731.570496,686.846924 734.353516,686.634460 737.136597,686.421936 
	C737.134583,685.853088 737.132568,685.284180 737.130554,684.715332 
	C734.377930,684.715332 731.420959,684.125183 728.963196,684.976440 
	C727.817871,685.373047 727.640320,688.563904 727.510132,691.046448 
M700.149109,698.781189 
	C703.653748,696.918213 705.183167,694.067139 704.165588,690.165039 
	C703.247375,686.643982 700.931641,683.925659 697.263367,684.204468 
	C694.814087,684.390686 691.293579,685.842346 690.433289,687.724487 
	C689.332947,690.131531 689.651978,693.878418 690.763367,696.438232 
	C692.301941,699.982117 696.031982,699.831299 700.149109,698.781189 
M523.578552,696.987366 
	C522.680176,696.931396 521.781860,696.875427 520.883484,696.819397 
	C521.844604,698.267273 523.067017,699.086304 524.364197,699.230042 
	C527.648010,699.594055 531.624329,700.230103 532.591125,695.927856 
	C533.549194,691.664795 529.658203,691.564880 526.810425,690.907959 
	C526.487915,690.833557 526.073242,690.860413 525.859436,690.666138 
	C525.064575,689.944031 524.335815,689.149170 523.582214,688.381592 
	C524.539795,687.644836 525.425232,686.438049 526.471252,686.277527 
	C528.186523,686.014221 530.006104,686.430542 531.781677,686.560181 
	C530.831177,685.103394 529.740723,684.400024 528.568848,684.216492 
	C525.443970,683.726929 522.197388,683.974426 521.266968,687.578247 
	C520.267212,691.450439 523.657654,691.981812 526.317505,692.924194 
	C527.797485,693.448669 529.169800,694.277039 530.590637,694.968445 
	C530.485229,695.516541 530.379883,696.064697 530.274536,696.612854 
	C528.288208,696.764954 526.301880,696.916992 523.578552,696.987366 
M494.419586,686.273376 
	C496.498779,686.796082 498.577942,687.318848 501.521027,688.058777 
	C499.284576,683.961975 496.406433,683.298523 493.192474,684.134033 
	C489.455902,685.105347 487.191406,687.723267 487.090515,691.661804 
	C486.997589,695.289490 488.528076,698.170227 492.254852,699.228760 
	C495.544281,700.163086 498.606812,699.949768 501.028961,696.135620 
	C496.624939,696.269165 491.669342,699.876282 489.717255,693.469910 
	C488.679932,690.065613 490.390717,687.736084 494.419586,686.273376 
M309.965363,694.598022 
	C307.697266,695.419800 305.447754,696.745239 303.152466,696.829956 
	C302.152344,696.866760 299.933655,694.026733 300.216431,693.067566 
	C301.085938,690.117981 302.896484,687.445862 304.129944,685.072510 
	C300.180420,684.831726 297.472687,687.088989 297.328613,691.882690 
	C297.207489,695.912781 300.526428,699.266357 304.899750,699.533020 
	C309.357361,699.804749 312.892548,696.977051 312.950836,692.658264 
	C312.994110,689.449341 312.766693,685.986694 308.932129,685.926758 
	C309.381714,688.699585 309.800140,691.280396 309.965363,694.598022 
M674.626038,696.572510 
	C674.338135,693.342773 674.050232,690.112976 673.763245,686.893494 
	C675.763428,686.280701 677.198425,685.841064 678.995239,685.290588 
	C676.473877,683.622681 674.435608,682.274353 672.219910,680.808655 
	C671.295715,682.323242 670.351013,683.871582 670.010071,684.430298 
	C670.733154,686.855713 671.380859,688.356384 671.594971,689.916626 
	C671.864075,691.877197 671.429871,693.986450 671.962524,695.841003 
	C672.345825,697.175537 673.612549,698.750610 674.855530,699.204590 
	C676.092651,699.656433 677.792053,698.842773 679.288696,698.584045 
	C679.218994,698.161743 679.149353,697.739441 679.079651,697.317139 
	C677.839783,697.196838 676.599854,697.076538 674.626038,696.572510 
M315.169861,684.270447 
	C316.140472,689.321289 317.111084,694.372131 318.157593,699.817871 
	C321.555298,695.172180 315.961853,688.610413 321.729279,685.744446 
	C321.012543,684.631409 320.248383,683.444702 319.484192,682.258057 
	C321.106720,681.264526 322.729248,680.271057 324.283264,679.319580 
	C321.769745,676.752686 318.787231,677.030518 317.417877,680.269836 
	C316.888947,681.521118 316.402069,682.790161 315.169861,684.270447 
M467.384186,696.152283 
	C468.119476,697.450256 468.854736,698.748230 470.392365,701.462646 
	C473.224854,694.876038 475.410217,689.794189 477.595551,684.712341 
	C477.052948,684.460693 476.510345,684.208984 475.967712,683.957336 
	C474.113647,687.830200 472.259583,691.703003 470.055573,696.306824 
	C467.874969,691.737488 466.003204,687.815247 464.131439,683.893066 
	C463.661774,684.120911 463.192108,684.348755 462.722443,684.576660 
	C464.176056,688.209351 465.629700,691.842041 467.384186,696.152283 
M328.045044,698.098938 
	C330.013916,698.539429 331.982758,698.979858 333.951630,699.420349 
	C332.389618,697.299194 329.928192,696.472412 329.746735,695.294434 
	C329.138733,691.347290 328.087372,686.852722 332.790833,685.186279 
	C331.106049,683.585571 329.566040,682.122437 327.900665,680.540222 
	C327.094696,682.024353 325.385284,683.701843 325.503632,685.238586 
	C325.817719,689.317322 326.921051,693.335205 328.045044,698.098938 
M453.191101,688.869202 
	C453.191101,692.491516 453.191101,696.113831 453.191101,699.736145 
	C453.759521,699.778076 454.327911,699.820007 454.896332,699.862000 
	C457.288391,695.156372 452.620178,687.464478 460.646820,684.711853 
	C458.402130,684.546021 456.157440,684.380188 453.638977,684.194092 
	C453.510864,685.427734 453.376373,686.722961 453.191101,688.869202 
M380.990356,689.626221 
	C380.990356,692.899780 380.990356,696.173340 380.990356,699.446899 
	C381.663635,699.450562 382.336914,699.454224 383.010193,699.457947 
	C383.160583,696.745789 382.722809,693.815918 383.624023,691.381836 
	C384.555725,688.865540 386.787994,686.830688 388.755615,684.174500 
	C386.107147,684.361389 383.758148,684.527161 381.181366,684.708984 
	C381.118835,686.072937 381.058685,687.385559 380.990356,689.626221 
M644.500732,699.181091 
	C645.049561,698.437073 646.032532,697.716675 646.074524,696.945068 
	C646.291443,692.960876 646.323547,688.963257 646.305725,684.970886 
	C646.295410,682.660583 646.069580,680.351257 645.940735,678.041565 
	C645.322876,678.052734 644.705017,678.063904 644.087158,678.075134 
	C644.087158,684.879272 644.087158,691.683411 644.500732,699.181091 
M685.292969,689.741882 
	C685.090271,687.855896 684.887573,685.969910 684.684875,684.083984 
	C684.362000,684.151367 684.039062,684.218750 683.716187,684.286133 
	C683.716187,689.293091 683.716187,694.300049 683.716187,699.307007 
	C684.240967,699.306885 684.765686,699.306763 685.290466,699.306641 
	C685.290466,696.417480 685.290466,693.528381 685.292969,689.741882 
M480.790466,689.087769 
	C480.790466,692.497864 480.790466,695.907959 480.790466,699.318054 
	C481.347961,699.302246 481.905457,699.286377 482.462952,699.270569 
	C482.462952,694.419617 482.462952,689.568665 482.462952,684.717712 
	C482.116974,684.690002 481.770996,684.662231 481.425018,684.634521 
	C481.215790,685.842041 481.006561,687.049622 480.790466,689.087769 
z"/>
<path fill="#F28829" opacity="1.000000" stroke="none" 
	d="
M533.007263,352.022522 
	C538.737183,350.648773 544.412842,348.474030 550.209167,348.081940 
	C559.798706,347.433228 569.466064,347.933502 579.867310,348.295532 
	C584.750488,348.444580 588.866943,348.247711 592.983337,348.050842 
	C594.706604,347.995728 596.429932,347.940613 598.580139,348.371613 
	C599.542908,354.003601 601.067322,359.284393 600.387512,364.264282 
	C599.314331,372.125610 602.542786,377.758942 607.957825,382.173584 
	C611.406982,384.985565 616.075806,386.301605 620.018555,388.202026 
	C621.436890,387.507111 622.962280,386.759735 624.606262,386.298218 
	C624.851868,386.975922 624.978821,387.367767 625.104919,388.131592 
	C626.903870,392.016052 629.362732,394.989716 628.514404,399.748474 
	C628.144104,401.825806 631.801758,404.621155 633.630188,407.090454 
	C631.063477,419.545471 628.496765,432.000458 625.308350,444.737671 
	C621.136597,445.232544 618.617798,444.036072 616.159485,441.092072 
	C613.943298,438.438141 610.473267,435.948761 607.180298,435.302704 
	C603.179932,434.517822 601.209229,432.496368 600.173706,429.235413 
	C597.893799,422.055664 590.578979,420.002991 586.193237,415.003723 
	C587.829163,406.758179 589.465149,398.512634 591.239258,389.570953 
	C581.396057,389.570953 572.132385,389.570953 562.308472,389.154755 
	C555.639099,384.930511 549.549072,381.091095 543.389221,377.367065 
	C542.824829,377.025848 541.814636,377.455811 541.010315,377.471710 
	C537.109314,377.548920 530.345642,372.331818 528.937073,369.284393 
	C525.780579,362.455231 525.220459,356.600037 532.918701,352.501221 
	C533.007935,352.453705 532.980347,352.186951 533.007263,352.022522 
z"/>
<path fill="#21A09C" opacity="1.000000" stroke="none" 
	d="
M391.173645,458.112701 
	C389.791565,462.980438 388.735718,467.970642 386.963440,472.691895 
	C382.494812,484.595917 380.240082,497.399963 371.854828,507.714233 
	C361.065857,520.985107 347.327179,528.545227 330.359711,529.589661 
	C320.316620,530.207825 310.204376,529.702698 299.044098,529.702698 
	C303.429962,526.500000 307.116852,524.125305 310.443451,521.322937 
	C324.093903,509.824097 330.934143,494.320526 336.269470,477.778076 
	C341.285675,462.225037 346.995697,446.895782 352.966125,431.355591 
	C355.464142,433.023254 357.150635,435.234192 359.374573,436.503265 
	C366.207947,440.402649 373.165314,444.108765 380.234497,447.562439 
	C385.102081,449.940552 389.570282,452.469910 391.173645,458.112701 
z"/>
<path fill="#2EAEA9" opacity="1.000000" stroke="none" 
	d="
M498.125183,484.049103 
	C480.676941,502.969635 448.039246,498.097809 437.127747,475.029266 
	C428.480560,456.747803 419.672607,438.542206 410.877289,420.331268 
	C410.120026,418.763397 408.921265,417.408752 407.510498,415.572510 
	C407.069366,414.130554 407.045349,413.071136 407.430328,412.009949 
	C411.092377,411.066864 414.446167,410.378937 417.578217,409.133301 
	C424.919373,406.213623 425.183411,405.569550 424.366455,398.045380 
	C425.462463,398.879456 426.517029,399.546936 426.877380,400.481964 
	C429.081299,406.200226 431.546326,407.475739 437.353241,405.788666 
	C438.758850,405.380280 440.252167,405.282898 441.694733,404.990967 
	C445.917542,404.136353 450.135162,403.255829 454.354797,402.385437 
	C455.963074,406.243011 457.571350,410.100616 459.107361,414.767944 
	C458.526306,421.540680 455.045563,424.099243 449.377411,422.614563 
	C447.933502,422.236328 446.572205,421.491882 445.116150,421.220551 
	C440.264984,420.316467 435.960754,423.678192 437.666290,427.124634 
	C442.960968,437.823914 448.532990,448.385925 454.135315,459.315186 
	C456.981018,463.370209 459.180481,467.655182 462.492004,470.750366 
	C472.433990,480.042725 484.168182,485.193481 498.125183,484.049103 
z"/>
<path fill="#F29234" opacity="1.000000" stroke="none" 
	d="
M633.779663,406.774902 
	C631.801758,404.621155 628.144104,401.825806 628.514404,399.748474 
	C629.362732,394.989716 626.903870,392.016052 625.553467,388.098846 
	C629.278198,387.694122 632.553467,387.694122 636.221191,387.694122 
	C636.221191,383.645447 636.221191,380.105896 636.221191,376.363892 
	C632.319092,376.363892 628.768250,376.363892 625.079102,376.363892 
	C624.869812,379.778473 624.678711,382.895447 624.487671,386.012390 
	C622.962280,386.759735 621.436890,387.507111 620.018555,388.202026 
	C616.075806,386.301605 611.406982,384.985565 607.957825,382.173584 
	C602.542786,377.758942 599.314331,372.125610 600.387512,364.264282 
	C601.067322,359.284393 599.542908,354.003601 599.005981,348.443359 
	C606.814026,347.825928 614.622559,347.481262 622.432373,347.447723 
	C642.061523,347.363495 661.691223,347.419891 681.999695,347.419891 
	C681.999695,352.023376 681.999695,356.231689 681.999695,360.694580 
	C687.280273,360.694580 691.887756,360.694580 697.994507,360.694580 
	C696.302490,365.606506 695.565735,370.293976 693.247314,373.989075 
	C686.751526,384.342316 676.747131,389.224335 664.705505,389.648376 
	C655.749023,389.963776 646.772522,389.710480 637.435242,389.710480 
	C636.229919,395.468170 635.079529,400.963745 633.779663,406.774902 
M654.375671,377.924591 
	C654.375671,381.036102 654.375671,384.147583 654.375671,387.504028 
	C658.372620,387.504028 661.940857,387.504028 665.556030,387.504028 
	C665.556030,383.547363 665.556030,379.876099 665.556030,375.514465 
	C661.531433,376.072937 658.034912,376.558136 654.375671,377.924591 
M680.857239,363.873535 
	C677.011597,363.055054 673.165894,362.236542 669.236877,361.400299 
	C669.236877,366.375305 669.236877,370.082520 669.236877,373.902649 
	C673.275757,373.902649 676.861816,373.902649 680.889648,373.902649 
	C680.889648,370.698242 680.889648,367.744049 680.857239,363.873535 
M616.487671,373.915955 
	C618.233704,373.915955 619.979736,373.915955 621.536255,373.915955 
	C621.536255,369.557129 621.536255,366.001587 621.536255,362.627197 
	C617.528931,362.627197 613.968445,362.627197 610.659851,362.627197 
	C610.659851,366.587036 610.659851,370.150635 610.659851,373.916473 
	C612.587952,373.916473 614.077637,373.916473 616.487671,373.915955 
M639.918823,369.431671 
	C640.033081,370.849731 640.147339,372.267792 640.256348,373.621033 
	C644.133789,373.621033 647.534302,373.621033 650.786865,373.621033 
	C650.786865,369.703369 650.786865,366.159149 650.786865,362.655518 
	C646.970642,362.655518 643.592712,362.655518 639.916931,362.655518 
	C639.916931,364.865143 639.916931,366.678711 639.918823,369.431671 
M631.440247,349.005432 
	C629.359802,349.005432 627.279419,349.005432 625.223511,349.005432 
	C625.223511,353.021362 625.223511,356.265198 625.223511,359.769165 
	C629.086426,359.769165 632.642090,359.769165 636.524902,359.769165 
	C636.524902,356.175232 636.524902,352.812317 636.524902,349.233093 
	C634.968628,349.147461 633.673645,349.076202 631.440247,349.005432 
M654.786804,358.788544 
	C658.395020,359.415985 662.003296,360.043396 665.704224,360.686920 
	C665.704224,356.068695 665.704224,352.695496 665.704224,349.313293 
	C661.746399,349.313293 658.192688,349.313293 654.125854,349.313293 
	C654.278992,352.407135 654.415466,355.163757 654.786804,358.788544 
z"/>
<path fill="#EF7127" opacity="1.000000" stroke="none" 
	d="
M621.903809,463.003143 
	C619.580139,474.405182 617.816284,485.957611 614.802979,497.174377 
	C610.163269,514.444885 591.876770,528.326477 572.877808,529.968750 
	C569.761658,530.238098 566.631958,530.351196 562.438660,530.599976 
	C567.461487,506.057648 572.332153,482.258392 577.726074,458.281433 
	C579.806702,459.545197 581.215637,461.203918 582.948730,462.388275 
	C588.747314,466.350739 595.263428,468.510071 602.245911,468.791718 
	C605.495483,468.922821 608.922546,468.602997 612.013855,467.654968 
	C615.461792,466.597595 618.619690,464.594574 621.903809,463.003143 
M613.225403,476.659485 
	C613.372131,475.926483 613.886780,474.934570 613.590332,474.513458 
	C612.938171,473.586823 611.934387,472.844757 610.930725,472.283752 
	C610.740295,472.177307 609.887939,473.254883 609.341003,473.786194 
	C610.407593,474.810852 611.474243,475.835510 613.225403,476.659485 
z"/>
<path fill="#25A5A1" opacity="1.000000" stroke="none" 
	d="
M372.887939,640.000000 
	C372.886353,647.620789 372.886353,654.741577 372.886353,662.083679 
	C369.123901,662.083679 365.692444,662.083679 361.641510,662.083679 
	C361.641510,651.379822 361.641510,640.828247 361.641510,630.276672 
	C361.232574,630.149292 360.823639,630.021912 360.414673,629.894470 
	C357.398834,634.901428 354.361450,639.895630 351.374969,644.920044 
	C349.508911,648.059387 347.754791,651.265259 345.886688,654.403259 
	C343.752869,657.987671 339.517914,657.883789 337.362793,654.208130 
	C332.675079,646.213135 328.009674,638.205139 322.323914,630.414917 
	C322.323914,640.841309 322.323914,651.267639 322.323914,662.015259 
	C318.277252,662.015259 314.833984,662.015259 311.085541,662.015259 
	C311.085541,643.945068 311.085541,625.748962 311.085541,607.610474 
	C320.744873,606.103027 320.734436,606.109009 325.369629,614.215393 
	C330.644470,623.440491 335.940338,632.653503 341.671204,642.646179 
	C345.406677,636.316040 348.787415,630.652527 352.099915,624.949280 
	C354.103943,621.498779 356.340027,618.128479 357.873993,614.471313 
	C360.625275,607.911926 365.122253,605.441833 372.889496,607.735535 
	C372.889496,618.015625 372.889496,628.757812 372.887939,640.000000 
z"/>
<path fill="#1A8A87" opacity="1.000000" stroke="none" 
	d="
M391.498596,457.990051 
	C389.570282,452.469910 385.102081,449.940552 380.234497,447.562439 
	C373.165314,444.108765 366.207947,440.402649 359.374573,436.503265 
	C357.150635,435.234192 355.464142,433.023254 353.215210,431.104248 
	C356.009460,421.800079 359.101471,412.628357 362.238617,403.472076 
	C363.950531,398.475647 365.738983,393.505463 368.104980,388.274414 
	C370.362457,388.741669 372.133820,389.258575 373.633270,390.205902 
	C385.478821,397.689728 393.330994,408.697052 400.259674,420.525635 
	C401.210846,422.149475 402.581299,423.527710 403.757629,425.019653 
	C399.779572,435.968872 395.801514,446.918121 391.498596,457.990051 
z"/>
<path fill="#2BB8B2" opacity="1.000000" stroke="none" 
	d="
M454.281311,402.049103 
	C450.135162,403.255829 445.917542,404.136353 441.694733,404.990967 
	C440.252167,405.282898 438.758850,405.380280 437.353241,405.788666 
	C431.546326,407.475739 429.081299,406.200226 426.877380,400.481964 
	C426.517029,399.546936 425.462463,398.879456 424.090424,397.843109 
	C421.933197,394.650635 420.479584,391.667542 418.884552,388.762054 
	C410.056671,372.681763 397.168182,363.264221 378.110291,364.040100 
	C395.764709,342.996643 429.617249,347.355164 441.007874,372.184357 
	C445.503265,381.983368 449.813385,391.867432 454.281311,402.049103 
z"/>
<path fill="#0E6565" opacity="1.000000" stroke="none" 
	d="
M550.121216,398.228119 
	C560.185730,398.228119 570.250305,398.228119 581.151611,398.228119 
	C578.220825,410.356781 575.089783,422.329865 572.487671,434.416779 
	C570.645386,442.974548 569.630432,451.707336 568.017090,460.319061 
	C567.376343,463.739258 566.116882,467.043549 564.643311,470.616455 
	C563.892761,470.635498 563.428711,470.453979 563.413147,470.239716 
	C562.596558,459.036102 552.903625,454.620209 546.208313,447.966522 
	C545.529114,447.291565 543.523010,447.951935 542.132568,447.992676 
	C544.604553,433.039795 547.077759,418.087128 549.545349,403.133575 
	C549.679749,402.318848 549.767883,401.496552 549.919556,400.026031 
	C550.014771,398.992249 550.067993,398.610168 550.121216,398.228119 
z"/>
<path fill="#117171" opacity="1.000000" stroke="none" 
	d="
M542.043640,448.323242 
	C543.523010,447.951935 545.529114,447.291565 546.208313,447.966522 
	C552.903625,454.620209 562.596558,459.036102 563.413147,470.239716 
	C563.428711,470.453979 563.892761,470.635498 564.502197,470.913116 
	C564.585754,472.459930 564.314758,473.925934 563.642334,475.761963 
	C559.925842,481.739685 558.424316,487.667480 560.060181,494.149170 
	C559.108093,500.510498 558.252319,506.888214 557.174377,513.228149 
	C556.258545,518.614685 555.086365,523.957642 554.018433,529.365784 
	C541.316528,524.106079 532.406433,507.160004 534.551331,492.238220 
	C535.636658,484.687866 537.145691,477.198395 539.052979,469.275757 
	C540.094910,464.582886 540.546997,460.295654 540.999084,456.008392 
	C540.975525,455.555145 540.951904,455.101898 541.356323,454.260010 
	C541.864990,452.584991 541.945679,451.298584 542.026306,450.012207 
	C542.002441,449.559418 541.978577,449.106628 542.043640,448.323242 
z"/>
<path fill="#F07E27" opacity="1.000000" stroke="none" 
	d="
M622.066406,462.645081 
	C618.619690,464.594574 615.461792,466.597595 612.013855,467.654968 
	C608.922546,468.602997 605.495483,468.922821 602.245911,468.791718 
	C595.263428,468.510071 588.747314,466.350739 582.948730,462.388275 
	C581.215637,461.203918 579.806702,459.545197 577.901367,457.949829 
	C580.338623,443.782776 583.123657,429.769653 586.051025,415.380127 
	C590.578979,420.002991 597.893799,422.055664 600.173706,429.235413 
	C601.209229,432.496368 603.179932,434.517822 607.180298,435.302704 
	C610.473267,435.948761 613.943298,438.438141 616.159485,441.092072 
	C618.617798,444.036072 621.136597,445.232544 625.147461,445.051971 
	C624.481812,450.818390 623.355408,456.552673 622.066406,462.645081 
z"/>
<path fill="#2EAEA9" opacity="1.000000" stroke="none" 
	d="
M695.943542,662.268799 
	C693.723511,662.270020 691.936462,662.270020 689.620361,662.270020 
	C689.620361,654.711426 689.660400,647.601562 689.609680,640.492371 
	C689.552856,632.519897 687.056091,629.439880 680.726257,629.360535 
	C673.945679,629.275513 670.005127,633.389954 669.919312,640.836609 
	C669.838867,647.811890 669.902100,654.788818 669.902100,662.075684 
	C666.048279,662.075684 662.481262,662.075684 658.528503,662.075684 
	C658.528503,642.430481 658.528503,623.060547 658.528503,603.392212 
	C662.162720,603.392212 665.589478,603.392212 669.687134,603.392212 
	C669.687134,610.066711 669.687134,616.758362 669.687134,622.528442 
	C674.960083,621.241760 679.744751,619.287964 684.610229,619.060120 
	C693.201843,618.657837 700.273376,624.706848 700.931641,633.354797 
	C701.645935,642.739075 701.093628,652.219788 701.093628,662.042297 
	C699.629211,662.112244 698.002930,662.189880 695.943542,662.268799 
z"/>
<path fill="#25A5A1" opacity="1.000000" stroke="none" 
	d="
M412.410034,631.282837 
	C413.144623,629.552856 413.709961,628.166748 414.279205,626.782166 
	C417.672516,618.528687 418.322632,618.199158 427.938477,620.106750 
	C423.105011,631.776367 418.380615,643.419495 413.452332,654.975586 
	C411.174103,660.317688 408.973419,665.789612 405.897095,670.673218 
	C400.507507,679.229126 388.223480,680.309448 380.388184,673.073547 
	C381.646362,670.749939 382.956940,668.329590 384.352631,665.752014 
	C386.157379,666.575623 387.683990,667.895996 389.098907,667.785583 
	C391.870605,667.569275 395.055115,667.180542 397.118744,665.612732 
	C398.181000,664.805664 397.858368,661.035095 397.037323,659.074524 
	C391.603943,646.100403 385.865387,633.254150 379.835876,619.474182 
	C383.580536,619.474182 386.605865,619.066528 389.431061,619.641724 
	C390.902039,619.941223 392.539978,621.744385 393.211182,623.262512 
	C396.964966,631.752441 400.446655,640.362671 404.480103,650.031738 
	C407.373566,643.171631 409.808075,637.399536 412.410034,631.282837 
z"/>
<path fill="#2EAEA9" opacity="1.000000" stroke="none" 
	d="
M584.726257,662.949158 
	C570.385742,662.945679 561.972107,657.384460 559.043518,646.294312 
	C555.703247,633.645325 563.549316,621.497864 576.568176,619.161987 
	C589.864441,616.776489 601.689758,625.837830 602.856995,639.343750 
	C602.984131,640.815002 602.874146,642.306763 602.874146,644.470703 
	C592.169434,644.470703 581.655212,644.470703 570.537170,644.470703 
	C571.757446,650.018982 575.030396,652.226868 579.405151,652.683960 
	C582.309204,652.987427 585.889343,653.354919 588.148254,651.998047 
	C593.605103,648.720154 596.536377,651.448364 599.760925,655.497803 
	C596.113220,660.427856 590.871765,662.105286 584.726257,662.949158 
M588.813538,637.778259 
	C592.285522,638.086243 591.706543,636.102722 590.867249,634.067261 
	C589.219910,630.071960 583.787842,627.512268 578.715088,628.289062 
	C574.043396,629.004456 571.177063,632.206177 570.625122,637.781189 
	C576.424622,637.781189 582.186890,637.781189 588.813538,637.778259 
z"/>
<path fill="#25A5A1" opacity="1.000000" stroke="none" 
	d="
M479.675293,637.801147 
	C484.240967,637.581848 488.365967,637.399597 492.458862,637.218872 
	C492.665955,627.932434 483.959564,626.053345 470.661682,632.404175 
	C469.427246,629.819275 468.189880,627.228210 466.978302,624.691101 
	C475.095520,618.068848 489.213226,617.012146 497.704712,622.273132 
	C501.853729,624.843750 504.034698,628.783508 504.153137,633.499390 
	C504.386566,642.795776 504.221893,652.102112 504.221893,662.056641 
	C500.529846,661.014099 495.584198,665.283447 493.098541,658.658875 
	C485.321960,663.978333 477.293488,664.586609 469.267670,659.574829 
	C465.514038,657.230774 463.950592,651.241638 465.467316,646.493225 
	C467.606750,639.795044 473.126953,638.310913 479.675293,637.801147 
M478.046936,653.523376 
	C482.341949,655.718262 486.677521,655.345032 490.095062,652.260620 
	C491.924255,650.609741 492.472382,647.539368 493.991821,644.261292 
	C488.720276,644.261292 485.070007,644.008301 481.468933,644.321411 
	C476.276062,644.773071 474.771301,648.244568 478.046936,653.523376 
z"/>
<path fill="#EF7127" opacity="1.000000" stroke="none" 
	d="
M523.412659,443.153625 
	C518.833130,451.010742 514.253601,458.867859 509.174561,466.656158 
	C502.966980,462.745667 496.479523,459.669250 491.757050,454.859711 
	C486.411163,449.415283 482.648438,442.416321 478.197327,436.093292 
	C480.693756,431.562195 483.190216,427.031097 486.270935,422.190002 
	C490.223206,420.226349 493.591187,418.572723 497.015900,417.264893 
	C499.652802,420.339142 503.200714,422.641418 504.626282,425.878357 
	C508.448669,434.557495 514.902222,439.843689 523.412659,443.153625 
z"/>
<path fill="#F07E27" opacity="1.000000" stroke="none" 
	d="
M532.652954,352.054993 
	C532.980347,352.186951 533.007935,352.453705 532.918701,352.501221 
	C525.220459,356.600037 525.780579,362.455231 528.937073,369.284393 
	C530.345642,372.331818 537.109314,377.548920 541.010315,377.471710 
	C541.814636,377.455811 542.824829,377.025848 543.389221,377.367065 
	C549.549072,381.091095 555.639099,384.930511 561.862061,389.008911 
	C552.343506,389.511932 542.701355,389.548950 533.080994,390.025360 
	C520.216248,390.662445 508.218750,394.170105 497.347412,401.947815 
	C497.019684,402.017639 497.057190,402.063751 497.057190,402.063751 
	C497.002747,401.906616 496.853210,401.696075 496.907257,401.599945 
	C504.608856,387.899597 511.918732,373.951050 520.295105,360.675476 
	C522.726379,356.822205 528.212830,354.896667 532.652954,352.054993 
z"/>
<path fill="#2EAEA9" opacity="1.000000" stroke="none" 
	d="
M625.043579,651.245850 
	C632.569336,654.306580 636.081299,653.473145 641.847412,647.477417 
	C644.636414,648.785339 647.464661,650.111633 650.273926,651.429077 
	C647.966492,659.203491 638.935730,663.985168 628.843384,662.887695 
	C617.198853,661.621521 608.614136,653.400879 607.967224,642.896973 
	C607.253845,631.312988 613.904663,622.359497 625.401306,619.426697 
	C635.671326,616.806824 646.404541,621.073608 650.427307,629.856201 
	C647.703247,631.206238 644.950989,632.570251 642.245056,633.911316 
	C634.351929,627.727600 627.182678,627.147339 622.828430,632.259155 
	C618.316467,637.556335 619.141113,645.763062 625.043579,651.245850 
z"/>
<path fill="#21A09C" opacity="1.000000" stroke="none" 
	d="
M377.834106,364.197327 
	C397.168182,363.264221 410.056671,372.681763 418.884552,388.762054 
	C420.479584,391.667542 421.933197,394.650635 423.728149,397.800171 
	C425.183411,405.569550 424.919373,406.213623 417.578217,409.133301 
	C414.446167,410.378937 411.092377,411.066864 407.257904,411.704163 
	C401.469421,401.270477 396.187439,391.178406 391.081970,380.997742 
	C387.743988,374.341461 382.650391,369.737885 375.815216,366.955902 
	C376.396118,366.088776 376.977020,365.221680 377.834106,364.197327 
z"/>
<path fill="#25A5A1" opacity="1.000000" stroke="none" 
	d="
M453.997375,459.001221 
	C448.532990,448.385925 442.960968,437.823914 437.666290,427.124634 
	C435.960754,423.678192 440.264984,420.316467 445.116150,421.220551 
	C446.572205,421.491882 447.933502,422.236328 449.377411,422.614563 
	C455.045563,424.099243 458.526306,421.540680 459.061493,415.154175 
	C463.815002,424.104645 468.542145,433.478638 473.581848,443.453796 
	C476.898468,451.035858 479.902557,458.016663 482.521973,464.996826 
	C478.111328,465.066986 475.839935,462.797180 474.139099,459.394135 
	C469.877197,450.866974 464.295776,451.805084 458.251068,454.975342 
	C456.587067,455.848053 455.402130,457.634186 453.997375,459.001221 
z"/>
<path fill="#F07E27" opacity="1.000000" stroke="none" 
	d="
M523.661743,442.948273 
	C514.902222,439.843689 508.448669,434.557495 504.626282,425.878357 
	C503.200714,422.641418 499.652802,420.339142 497.243134,416.994629 
	C509.859039,410.798950 522.884949,408.177246 536.510376,409.083832 
	C538.368042,409.207397 540.138000,410.650330 541.948547,411.482422 
	C535.935974,421.902588 529.923462,432.322754 523.661743,442.948273 
z"/>
<path fill="#0E6565" opacity="1.000000" stroke="none" 
	d="
M375.534973,367.150482 
	C382.650391,369.737885 387.743988,374.341461 391.081970,380.997742 
	C396.187439,391.178406 401.469421,401.270477 406.848907,411.705933 
	C407.045349,413.071136 407.069366,414.130554 407.152313,415.576233 
	C406.181488,418.766083 405.151672,421.569733 403.939758,424.696503 
	C402.581299,423.527710 401.210846,422.149475 400.259674,420.525635 
	C393.330994,408.697052 385.478821,397.689728 373.633270,390.205902 
	C372.133820,389.258575 370.362457,388.741669 368.342957,388.007446 
	C370.397491,381.108063 372.826111,374.226562 375.534973,367.150482 
z"/>
<path fill="#25A5A1" opacity="1.000000" stroke="none" 
	d="
M438.130493,662.278198 
	C436.552734,662.194702 435.413574,662.111267 433.980408,662.006348 
	C433.980408,647.916443 433.980408,634.000916 433.980408,619.709717 
	C437.369629,619.709717 440.614258,619.709717 444.251801,619.709717 
	C444.546295,620.974426 444.865326,622.344299 445.088348,623.302002 
	C449.633331,621.573242 454.248413,619.817810 459.631592,617.770203 
	C459.631592,622.529297 459.631592,625.774963 459.631592,629.311218 
	C458.382629,629.437073 457.268402,629.570923 456.150513,629.658386 
	C449.142944,630.206482 445.582367,633.800598 445.446625,640.839233 
	C445.312592,647.789612 445.417389,654.744568 445.417389,662.278320 
	C442.789032,662.278320 440.679047,662.278320 438.130493,662.278198 
z"/>
<path fill="#21A09C" opacity="1.000000" stroke="none" 
	d="
M454.135284,459.315155 
	C455.402130,457.634186 456.587067,455.848053 458.251068,454.975342 
	C464.295776,451.805084 469.877197,450.866974 474.139099,459.394135 
	C475.839935,462.797180 478.111328,465.066986 482.682007,465.303986 
	C487.468658,472.371826 491.846039,479.004944 499.289490,482.767303 
	C499.082458,483.108124 498.875458,483.448944 498.396820,483.919434 
	C484.168182,485.193481 472.433990,480.042725 462.492004,470.750366 
	C459.180481,467.655182 456.981018,463.370209 454.135284,459.315155 
z"/>
<path fill="#D44C19" opacity="1.000000" stroke="none" 
	d="
M499.526031,482.576233 
	C491.846039,479.004944 487.468658,472.371826 483.066650,465.304688 
	C479.902557,458.016663 476.898468,451.035858 473.833008,443.707825 
	C475.091156,441.102539 476.410675,438.844452 477.963776,436.339813 
	C482.648438,442.416321 486.411163,449.415283 491.757050,454.859711 
	C496.479523,459.669250 502.966980,462.745667 508.906860,466.862366 
	C506.013214,472.219971 502.887878,477.302551 499.526031,482.576233 
z"/>
<path fill="#25A5A1" opacity="1.000000" stroke="none" 
	d="
M539.714294,616.947876 
	C539.714294,631.904175 539.714294,646.860413 539.714294,662.076538 
	C535.701599,662.076538 532.079468,662.076538 527.305725,662.076538 
	C527.305725,647.397766 527.305725,632.647949 527.588745,617.532532 
	C529.327576,620.229431 532.024658,620.578369 534.761475,619.803955 
	C536.539490,619.300964 538.071838,617.929993 539.714294,616.947876 
z"/>
<path fill="#D44C19" opacity="1.000000" stroke="none" 
	d="
M542.192200,411.299591 
	C540.138000,410.650330 538.368042,409.207397 536.510376,409.083832 
	C522.884949,408.177246 509.859039,410.798950 497.186371,416.648865 
	C493.591187,418.572723 490.223206,420.226349 486.520508,421.952148 
	C491.244995,412.943909 499.786530,408.092041 508.753662,404.039551 
	C521.626831,398.221741 535.375854,397.232666 549.709351,397.983459 
	C550.067993,398.610168 550.014771,398.992249 549.943909,399.429504 
	C547.429443,403.362061 544.932678,407.239410 542.192200,411.299591 
z"/>
<path fill="#2EAEA9" opacity="1.000000" stroke="none" 
	d="
M540.203857,616.936584 
	C538.071838,617.929993 536.539490,619.300964 534.761475,619.803955 
	C532.024658,620.578369 529.327576,620.229431 527.524658,617.065186 
	C521.388062,616.963318 515.598572,616.963318 509.462433,616.963318 
	C509.462433,613.626770 509.462433,610.590271 509.462433,607.264526 
	C525.474426,607.264526 541.185791,607.264526 557.248779,607.264526 
	C557.248779,610.302246 557.248779,613.223877 557.248779,616.925293 
	C551.813049,616.925293 546.253235,616.925293 540.203857,616.936584 
z"/>
<path fill="#3C7F76" opacity="1.000000" stroke="none" 
	d="
M624.619141,694.393921 
	C623.472900,694.697571 622.353821,695.211975 621.727844,696.081421 
	C618.282776,700.866089 611.484619,701.095947 606.891418,695.932739 
	C609.854004,696.404114 612.311096,697.178345 614.715210,697.038696 
	C616.240479,696.950134 617.686768,695.501770 619.168457,694.663208 
	C618.002502,693.487610 616.981445,692.091309 615.627380,691.202148 
	C614.417419,690.407593 612.462097,690.552673 611.509277,689.605591 
	C609.911438,688.017334 607.634033,685.705933 607.887268,684.040100 
	C608.165710,682.208740 610.743042,679.912415 612.747070,679.352966 
	C615.595154,678.558105 619.200623,678.095276 621.745728,682.605408 
	C618.852844,682.093689 616.755188,681.230774 614.841003,681.532288 
	C613.166748,681.796021 611.698853,683.369019 610.139771,684.363586 
	C611.313232,685.576538 612.290894,687.136597 613.700134,687.931702 
	C616.836365,689.701233 620.188538,691.088074 623.948181,692.865112 
	C623.970032,692.796082 624.422241,691.709900 624.651123,690.578491 
	C625.495056,686.407166 627.974182,684.047241 632.244690,684.112244 
	C636.226868,684.172852 638.874878,686.463989 639.718628,690.268433 
	C640.519775,693.880676 639.128296,696.953674 635.723145,698.580750 
	C632.047058,700.337219 628.584473,699.895508 625.906921,696.472656 
	C625.500549,695.953186 625.215210,695.338989 624.619141,694.393921 
M636.678162,694.851257 
	C637.962158,691.578247 638.075195,688.259094 634.328613,686.954224 
	C632.639709,686.366089 629.069275,687.228638 628.431580,688.486816 
	C627.439209,690.444702 627.300598,693.918640 628.455139,695.640076 
	C630.428772,698.582825 633.599854,697.911011 636.678162,694.851257 
z"/>
<path fill="#3C7F76" opacity="1.000000" stroke="none" 
	d="
M356.072937,697.953369 
	C354.409912,700.466248 353.403290,699.885986 352.589752,697.701294 
	C351.458252,694.662720 350.256500,691.650330 348.726318,687.701599 
	C346.831360,692.366943 345.360840,695.987244 343.890320,699.607605 
	C343.439911,699.700012 342.989502,699.792358 342.539093,699.884766 
	C340.448395,694.737854 338.357727,689.590881 336.267029,684.443970 
	C336.802155,684.152771 337.337311,683.861572 337.872437,683.570374 
	C339.609528,687.451172 341.346588,691.331970 343.334076,695.772156 
	C345.076904,691.362671 346.561340,687.606873 348.570801,682.522827 
	C350.833588,687.758789 352.568420,691.773071 354.497620,696.237122 
	C356.170654,691.839111 357.672241,687.891846 359.173828,683.944519 
	C359.743439,684.112549 360.313049,684.280579 360.882660,684.448608 
	C359.323914,688.840698 357.765198,693.232727 356.072937,697.953369 
z"/>
<path fill="#3C7F76" opacity="1.000000" stroke="none" 
	d="
M429.893921,697.941040 
	C423.400726,700.853577 420.345978,700.368835 416.742462,695.756836 
	C419.696808,696.328552 422.272339,697.232361 424.822021,697.164429 
	C426.292694,697.125305 427.721588,695.516479 429.169281,694.614075 
	C428.052979,693.411194 427.099945,691.963440 425.771881,691.078308 
	C424.579926,690.283997 422.714813,690.442261 421.614014,689.582153 
	C419.935364,688.270691 417.353241,686.279724 417.529480,684.875366 
	C417.772644,682.937744 419.890350,680.533081 421.809204,679.667358 
	C424.927124,678.260864 428.366119,678.544312 431.805023,682.878540 
	C428.738434,682.314026 426.880951,681.492493 425.229919,681.795593 
	C423.369568,682.137146 421.695160,683.491516 419.939911,684.405457 
	C421.252869,685.627075 422.444122,687.032898 423.919800,688.008301 
	C424.978546,688.708191 426.457764,688.734192 427.679901,689.231567 
	C432.047638,691.009155 432.712769,693.322205 429.893921,697.941040 
z"/>
<path fill="#3C7F76" opacity="1.000000" stroke="none" 
	d="
M289.661163,697.030457 
	C293.799347,694.756409 292.728973,692.819763 289.637848,691.295532 
	C287.872894,690.425171 285.673035,690.332458 284.061523,689.285461 
	C282.548431,688.302307 280.399475,686.341003 280.590942,685.138123 
	C280.897766,683.210449 282.534668,680.833618 284.274445,679.937012 
	C287.559448,678.243896 291.091217,678.712830 293.868835,682.167236 
	C292.079132,681.869873 290.149445,681.013489 288.535370,681.417603 
	C286.545441,681.915894 284.818268,683.463623 282.977509,684.557861 
	C284.345886,685.717468 285.639435,686.986755 287.113007,687.992188 
	C287.894379,688.525269 289.238586,688.328979 289.893829,688.933411 
	C291.783508,690.676392 293.452240,692.658875 295.207764,694.547302 
	C293.014038,696.207214 291.040039,698.665283 288.576080,699.343689 
	C284.690186,700.413452 282.449310,699.045959 280.178802,695.915771 
	C283.316620,696.336121 286.283508,696.733582 289.661163,697.030457 
z"/>
<path fill="#3C7F76" opacity="1.000000" stroke="none" 
	d="
M581.195923,696.795654 
	C578.854919,692.941711 578.721252,688.918884 581.844971,686.524597 
	C584.314270,684.632019 588.176147,684.556213 591.419617,683.673584 
	C591.647522,684.128174 591.875427,684.582764 592.103333,685.037354 
	C592.388306,682.588806 592.673218,680.140198 592.958130,677.691650 
	C593.395508,677.710571 593.832886,677.729492 594.270264,677.748474 
	C594.270264,684.784241 594.270264,691.819946 594.270264,700.049805 
	C590.029602,699.073181 585.724792,698.081787 581.195923,696.795654 
M588.249329,686.214783 
	C586.227295,687.555481 583.665955,688.524353 582.387634,690.377930 
	C581.634094,691.470581 582.309143,694.644592 583.438904,695.652710 
	C584.747620,696.820251 587.466125,697.335693 589.187134,696.827881 
	C590.638184,696.399719 592.644043,693.920349 592.438354,692.673157 
	C592.072449,690.454468 590.219666,688.480896 588.249329,686.214783 
z"/>
<path fill="#3C7F76" opacity="1.000000" stroke="none" 
	d="
M552.478210,687.374084 
	C549.569641,686.920654 546.970093,686.792542 544.370605,686.664429 
	C544.274658,686.199829 544.178650,685.735229 544.082703,685.270630 
	C546.691650,684.873718 549.642822,683.554321 551.806580,684.357117 
	C553.709778,685.063354 555.403259,687.974060 555.972717,690.219727 
	C556.682068,693.016541 556.143005,696.130066 556.143005,699.070312 
	C553.557617,699.282410 551.360352,699.556091 549.156860,699.620544 
	C546.147461,699.708679 543.361023,698.411499 543.624390,695.324097 
	C543.772949,693.583130 546.436829,692.014526 548.050415,690.453918 
	C549.387573,689.160583 553.294922,692.238464 552.478210,687.374084 
M545.985535,694.508667 
	C547.313232,695.437073 548.757385,697.233582 549.939148,697.074951 
	C551.430420,696.874817 552.707764,695.080078 554.077332,693.973206 
	C553.737915,693.359558 553.398438,692.745911 553.059021,692.132324 
	C550.810364,692.693176 548.561646,693.254089 545.985535,694.508667 
z"/>
<path fill="#3C7F76" opacity="1.000000" stroke="none" 
	d="
M366.954407,690.765991 
	C369.126465,690.406189 370.911713,690.121948 373.089508,689.775269 
	C371.066742,683.896667 366.474640,687.790527 363.206909,687.440308 
	C363.216736,686.750000 363.226593,686.059753 363.236420,685.369446 
	C366.212891,685.102722 369.344452,684.133423 372.126465,684.747620 
	C375.577271,685.509277 375.933533,688.822144 375.666534,692.052917 
	C375.477478,694.340820 375.629883,696.656982 375.629883,699.011658 
	C373.352234,699.291016 371.413605,699.989807 369.699188,699.627441 
	C367.320862,699.124878 364.078247,698.435913 363.067139,696.726013 
	C361.486145,694.052307 363.687775,691.836426 366.954407,690.765991 
M367.081329,697.388306 
	C372.616272,697.441833 373.191284,696.914429 372.386230,692.391113 
	C370.772247,692.570129 369.068207,692.502808 367.541260,692.990173 
	C365.384094,693.678772 363.875671,694.919434 367.081329,697.388306 
z"/>
<path fill="#3C7F76" opacity="1.000000" stroke="none" 
	d="
M514.636230,698.988953 
	C511.588501,698.692871 508.490723,699.017578 506.265594,697.777100 
	C503.059662,695.989685 502.421906,692.466431 503.890137,689.028931 
	C505.399506,685.495117 508.185089,683.327148 512.128540,684.115112 
	C516.389832,684.966614 518.367920,687.961487 518.293640,692.832520 
	C514.197327,692.832520 510.301727,692.832520 505.857239,692.832520 
	C508.270935,699.297302 512.869141,696.750000 518.289551,696.091309 
	C516.400635,697.698425 515.688416,698.304443 514.636230,698.988953 
M511.317963,690.832581 
	C512.734375,690.720825 514.150818,690.609070 515.567200,690.497314 
	C515.762024,690.046204 515.956787,689.595154 516.151550,689.144104 
	C514.358887,688.159058 512.556824,686.390076 510.776184,686.411499 
	C509.028168,686.432434 507.301941,688.273010 505.566132,689.315002 
	C505.783325,689.760742 506.000519,690.206482 506.217682,690.652222 
	C507.636444,690.715454 509.055176,690.778687 511.317963,690.832581 
z"/>
<path fill="#3C7F76" opacity="1.000000" stroke="none" 
	d="
M439.892944,684.105103 
	C446.693207,683.902161 449.192322,686.295105 448.833344,692.810181 
	C445.137268,692.810181 441.388153,692.810181 437.494324,692.810181 
	C438.938843,697.593811 439.795410,697.857178 447.367126,696.324829 
	C447.490540,696.782288 447.613953,697.239746 447.737396,697.697205 
	C445.668060,698.255493 443.605377,699.248352 441.527954,699.280212 
	C437.399933,699.343628 435.101685,696.620911 434.392456,692.860352 
	C433.600922,688.663574 435.849823,685.904785 439.892944,684.105103 
M439.193420,690.613342 
	C441.696259,690.613342 444.199127,690.613342 446.701965,690.613342 
	C446.832550,689.881958 446.963135,689.150635 447.093750,688.419250 
	C445.028992,687.658936 442.978119,686.335571 440.895844,686.284180 
	C438.423584,686.223083 437.645996,688.076599 439.193420,690.613342 
z"/>
<path fill="#3C7F76" opacity="1.000000" stroke="none" 
	d="
M398.822632,684.051636 
	C403.729584,684.559326 404.828369,688.068665 406.255829,692.347656 
	C402.012634,692.628479 398.061249,692.889893 393.657166,693.181335 
	C395.944519,699.598633 400.597778,696.554260 405.717773,696.194397 
	C402.004852,699.973022 398.801941,700.256714 395.491394,698.958984 
	C392.022400,697.599121 390.522888,694.772644 390.916138,691.008057 
	C391.388367,686.486694 393.918457,684.204651 398.822632,684.051636 
M400.765106,686.670227 
	C397.322815,685.740173 394.734924,686.227112 393.925415,690.758789 
	C396.407623,690.758789 398.403290,690.897827 400.372223,690.727478 
	C403.691284,690.440308 403.535553,688.955627 400.765106,686.670227 
z"/>
<path fill="#3C7F76" opacity="1.000000" stroke="none" 
	d="
M660.302551,699.370483 
	C653.896484,699.940918 651.538208,697.947815 651.364380,692.146179 
	C651.279663,689.318542 651.349670,686.486328 651.349670,683.656189 
	C652.198792,683.657166 653.047852,683.658142 653.896973,683.659058 
	C653.896973,686.480896 653.947754,689.303955 653.883545,692.124329 
	C653.810120,695.352661 655.181091,697.285583 658.536316,697.202209 
	C661.805176,697.120911 663.252014,695.224854 663.169373,691.994568 
	C663.100525,689.305298 663.155273,686.612915 663.155273,683.921875 
	C663.771912,683.908020 664.388489,683.894165 665.005127,683.880310 
	C665.005127,688.854614 665.005127,693.828918 665.005127,699.232483 
	C663.779480,699.232483 662.227295,699.232483 660.302551,699.370483 
z"/>
<path fill="#3C7F76" opacity="1.000000" stroke="none" 
	d="
M561.565308,693.796997 
	C561.560608,690.372742 561.560608,687.392334 561.560608,683.989258 
	C566.148438,685.999756 572.230591,680.970032 574.630432,687.375916 
	C576.024231,691.096313 575.471436,695.546021 575.794556,699.667542 
	C575.062012,699.699707 574.329468,699.731873 573.596924,699.764038 
	C573.462097,696.927063 573.285950,694.091248 573.204041,691.252686 
	C573.121277,688.386658 571.969421,685.813904 568.949341,686.477112 
	C567.073059,686.889221 564.897400,689.155762 564.229614,691.069275 
	C563.318420,693.680115 563.715332,696.747559 563.551453,699.619263 
	C563.005432,699.629639 562.459412,699.640015 561.913391,699.650391 
	C561.798950,697.847229 561.684448,696.044006 561.565308,693.796997 
z"/>
<path fill="#3C7F76" opacity="1.000000" stroke="none" 
	d="
M719.986572,685.172180 
	C724.400330,689.662415 721.976013,694.536560 722.296509,699.161499 
	C721.698059,699.222290 721.099609,699.283020 720.501099,699.343811 
	C720.360413,696.808167 720.106262,694.272461 720.108459,691.736938 
	C720.111023,688.726013 719.268250,686.157959 715.895874,686.182068 
	C712.571899,686.205750 710.942505,688.530945 710.879761,691.821594 
	C710.831421,694.358215 710.870117,696.896423 710.870117,699.433960 
	C710.284424,699.418518 709.698730,699.403137 709.113037,699.387695 
	C709.113037,694.414246 709.113037,689.440796 709.113037,684.222595 
	C712.600586,684.466797 716.142090,684.714783 719.986572,685.172180 
z"/>
<path fill="#3C7F76" opacity="1.000000" stroke="none" 
	d="
M727.267090,690.767334 
	C727.640320,688.563904 727.817871,685.373047 728.963196,684.976440 
	C731.420959,684.125183 734.377930,684.715332 737.130554,684.715332 
	C737.132568,685.284180 737.134583,685.853088 737.136597,686.421936 
	C734.353516,686.634460 731.570496,686.846924 728.787476,687.059448 
	C728.698486,687.695801 728.609558,688.332153 728.520569,688.968506 
	C730.171387,689.645813 731.999817,690.068848 733.427185,691.066040 
	C735.138672,692.261719 736.508057,693.947205 738.025574,695.420654 
	C736.237488,696.808411 734.618042,698.906860 732.613586,699.382263 
	C730.643738,699.849426 728.283081,698.668579 726.093933,698.210876 
	C726.176147,697.641785 726.258362,697.072632 726.340515,696.503479 
	C729.341125,696.503479 732.341736,696.503479 735.342285,696.503479 
	C735.492676,695.968628 735.643005,695.433777 735.793396,694.898926 
	C733.032288,693.614746 730.271179,692.330566 727.267090,690.767334 
z"/>
<path fill="#3C7F76" opacity="1.000000" stroke="none" 
	d="
M699.801941,698.905212 
	C696.031982,699.831299 692.301941,699.982117 690.763367,696.438232 
	C689.651978,693.878418 689.332947,690.131531 690.433289,687.724487 
	C691.293579,685.842346 694.814087,684.390686 697.263367,684.204468 
	C700.931641,683.925659 703.247375,686.643982 704.165588,690.165039 
	C705.183167,694.067139 703.653748,696.918213 699.801941,698.905212 
M696.585144,686.066101 
	C695.288391,686.727539 693.033569,687.215515 692.876465,688.083313 
	C692.424744,690.578247 691.950806,693.834778 693.186707,695.603455 
	C694.025757,696.804199 698.898621,697.000122 699.875244,695.857239 
	C701.269592,694.225647 701.081787,690.928711 700.862976,688.404297 
	C700.787903,687.538147 698.589355,686.856079 696.585144,686.066101 
z"/>
<path fill="#3C7F76" opacity="1.000000" stroke="none" 
	d="
M523.947021,697.028198 
	C526.301880,696.916992 528.288208,696.764954 530.274536,696.612854 
	C530.379883,696.064697 530.485229,695.516541 530.590637,694.968445 
	C529.169800,694.277039 527.797485,693.448669 526.317505,692.924194 
	C523.657654,691.981812 520.267212,691.450439 521.266968,687.578247 
	C522.197388,683.974426 525.443970,683.726929 528.568848,684.216492 
	C529.740723,684.400024 530.831177,685.103394 531.781677,686.560181 
	C530.006104,686.430542 528.186523,686.014221 526.471252,686.277527 
	C525.425232,686.438049 524.539795,687.644836 523.582214,688.381592 
	C524.335815,689.149170 525.064575,689.944031 525.859436,690.666138 
	C526.073242,690.860413 526.487915,690.833557 526.810425,690.907959 
	C529.658203,691.564880 533.549194,691.664795 532.591125,695.927856 
	C531.624329,700.230103 527.648010,699.594055 524.364197,699.230042 
	C523.067017,699.086304 521.844604,698.267273 520.883484,696.819397 
	C521.781860,696.875427 522.680176,696.931396 523.947021,697.028198 
z"/>
<path fill="#3C7F76" opacity="1.000000" stroke="none" 
	d="
M494.003418,686.355896 
	C490.390717,687.736084 488.679932,690.065613 489.717255,693.469910 
	C491.669342,699.876282 496.624939,696.269165 501.028961,696.135620 
	C498.606812,699.949768 495.544281,700.163086 492.254852,699.228760 
	C488.528076,698.170227 486.997589,695.289490 487.090515,691.661804 
	C487.191406,687.723267 489.455902,685.105347 493.192474,684.134033 
	C496.406433,683.298523 499.284576,683.961975 501.521027,688.058777 
	C498.577942,687.318848 496.498779,686.796082 494.003418,686.355896 
z"/>
<path fill="#3C7F76" opacity="1.000000" stroke="none" 
	d="
M310.091980,694.229614 
	C309.800140,691.280396 309.381714,688.699585 308.932129,685.926758 
	C312.766693,685.986694 312.994110,689.449341 312.950836,692.658264 
	C312.892548,696.977051 309.357361,699.804749 304.899750,699.533020 
	C300.526428,699.266357 297.207489,695.912781 297.328613,691.882690 
	C297.472687,687.088989 300.180420,684.831726 304.129944,685.072510 
	C302.896484,687.445862 301.085938,690.117981 300.216431,693.067566 
	C299.933655,694.026733 302.152344,696.866760 303.152466,696.829956 
	C305.447754,696.745239 307.697266,695.419800 310.091980,694.229614 
z"/>
<path fill="#3C7F76" opacity="1.000000" stroke="none" 
	d="
M674.993042,696.764404 
	C676.599854,697.076538 677.839783,697.196838 679.079651,697.317139 
	C679.149353,697.739441 679.218994,698.161743 679.288696,698.584045 
	C677.792053,698.842773 676.092651,699.656433 674.855530,699.204590 
	C673.612549,698.750610 672.345825,697.175537 671.962524,695.841003 
	C671.429871,693.986450 671.864075,691.877197 671.594971,689.916626 
	C671.380859,688.356384 670.733154,686.855713 670.010071,684.430298 
	C670.351013,683.871582 671.295715,682.323242 672.219910,680.808655 
	C674.435608,682.274353 676.473877,683.622681 678.995239,685.290588 
	C677.198425,685.841064 675.763428,686.280701 673.763245,686.893494 
	C674.050232,690.112976 674.338135,693.342773 674.993042,696.764404 
z"/>
<path fill="#3C7F76" opacity="1.000000" stroke="none" 
	d="
M315.532959,684.160767 
	C316.402069,682.790161 316.888947,681.521118 317.417877,680.269836 
	C318.787231,677.030518 321.769745,676.752686 324.283264,679.319580 
	C322.729248,680.271057 321.106720,681.264526 319.484192,682.258057 
	C320.248383,683.444702 321.012543,684.631409 321.729279,685.744446 
	C315.961853,688.610413 321.555298,695.172180 318.157593,699.817871 
	C317.111084,694.372131 316.140472,689.321289 315.532959,684.160767 
z"/>
<path fill="#3C7F76" opacity="1.000000" stroke="none" 
	d="
M467.233765,695.813477 
	C465.629700,691.842041 464.176056,688.209351 462.722443,684.576660 
	C463.192108,684.348755 463.661774,684.120911 464.131439,683.893066 
	C466.003204,687.815247 467.874969,691.737488 470.055573,696.306824 
	C472.259583,691.703003 474.113647,687.830200 475.967712,683.957336 
	C476.510345,684.208984 477.052948,684.460693 477.595551,684.712341 
	C475.410217,689.794189 473.224854,694.876038 470.392365,701.462646 
	C468.854736,698.748230 468.119476,697.450256 467.233765,695.813477 
z"/>
<path fill="#3C7F76" opacity="1.000000" stroke="none" 
	d="
M327.877747,697.738159 
	C326.921051,693.335205 325.817719,689.317322 325.503632,685.238586 
	C325.385284,683.701843 327.094696,682.024353 327.900665,680.540222 
	C329.566040,682.122437 331.106049,683.585571 332.790833,685.186279 
	C328.087372,686.852722 329.138733,691.347290 329.746735,695.294434 
	C329.928192,696.472412 332.389618,697.299194 333.951630,699.420349 
	C331.982758,698.979858 330.013916,698.539429 327.877747,697.738159 
z"/>
<path fill="#3C7F76" opacity="1.000000" stroke="none" 
	d="
M453.216492,688.443726 
	C453.376373,686.722961 453.510864,685.427734 453.638977,684.194092 
	C456.157440,684.380188 458.402130,684.546021 460.646820,684.711853 
	C452.620178,687.464478 457.288391,695.156372 454.896332,699.862000 
	C454.327911,699.820007 453.759521,699.778076 453.191101,699.736145 
	C453.191101,696.113831 453.191101,692.491516 453.216492,688.443726 
z"/>
<path fill="#3C7F76" opacity="1.000000" stroke="none" 
	d="
M380.994446,689.162170 
	C381.058685,687.385559 381.118835,686.072937 381.181366,684.708984 
	C383.758148,684.527161 386.107147,684.361389 388.755615,684.174500 
	C386.787994,686.830688 384.555725,688.865540 383.624023,691.381836 
	C382.722809,693.815918 383.160583,696.745789 383.010193,699.457947 
	C382.336914,699.454224 381.663635,699.450562 380.990356,699.446899 
	C380.990356,696.173340 380.990356,692.899780 380.994446,689.162170 
z"/>
<path fill="#3C7F76" opacity="1.000000" stroke="none" 
	d="
M644.293945,698.834351 
	C644.087158,691.683411 644.087158,684.879272 644.087158,678.075134 
	C644.705017,678.063904 645.322876,678.052734 645.940735,678.041565 
	C646.069580,680.351257 646.295410,682.660583 646.305725,684.970886 
	C646.323547,688.963257 646.291443,692.960876 646.074524,696.945068 
	C646.032532,697.716675 645.049561,698.437073 644.293945,698.834351 
z"/>
<path fill="#0E6565" opacity="1.000000" stroke="none" 
	d="
M560.353638,494.024902 
	C558.424316,487.667480 559.925842,481.739685 563.604797,476.068115 
	C562.861511,481.969696 561.754333,487.935181 560.353638,494.024902 
z"/>
<path fill="#3C7F76" opacity="1.000000" stroke="none" 
	d="
M685.291748,690.190552 
	C685.290466,693.528381 685.290466,696.417480 685.290466,699.306641 
	C684.765686,699.306763 684.240967,699.306885 683.716187,699.307007 
	C683.716187,694.300049 683.716187,689.293091 683.716187,684.286133 
	C684.039062,684.218750 684.362000,684.151367 684.684875,684.083984 
	C684.887573,685.969910 685.090271,687.855896 685.291748,690.190552 
z"/>
<path fill="#3C7F76" opacity="1.000000" stroke="none" 
	d="
M480.793915,688.672485 
	C481.006561,687.049622 481.215790,685.842041 481.425018,684.634521 
	C481.770996,684.662231 482.116974,684.690002 482.462952,684.717712 
	C482.462952,689.568665 482.462952,694.419617 482.462952,699.270569 
	C481.905457,699.286377 481.347961,699.302246 480.790466,699.318054 
	C480.790466,695.907959 480.790466,692.497864 480.793915,688.672485 
z"/>
<path fill="#0E6565" opacity="1.000000" stroke="none" 
	d="
M540.776489,456.329559 
	C540.546997,460.295654 540.094910,464.582886 539.252075,468.940552 
	C539.425598,464.890869 539.989746,460.770813 540.776489,456.329559 
z"/>
<path fill="#F29234" opacity="1.000000" stroke="none" 
	d="
M592.612183,347.919067 
	C588.866943,348.247711 584.750488,348.444580 580.333435,348.366455 
	C584.102173,347.990082 588.171570,347.888672 592.612183,347.919067 
z"/>
<path fill="#0E6565" opacity="1.000000" stroke="none" 
	d="
M541.831665,450.310852 
	C541.945679,451.298584 541.864990,452.584991 541.452271,453.930603 
	C541.292480,452.863037 541.464783,451.736267 541.831665,450.310852 
z"/>
<path fill="#F07E27" opacity="1.000000" stroke="none" 
	d="
M497.002563,401.993347 
	C496.895416,401.960754 496.805450,401.952484 496.886322,402.003967 
	C497.057190,402.063751 497.019684,402.017639 497.002563,401.993347 
z"/>
<path fill="#FDFDFD" opacity="1.000000" stroke="none" 
	d="
M624.606262,386.298248 
	C624.678711,382.895447 624.869812,379.778473 625.079102,376.363892 
	C628.768250,376.363892 632.319092,376.363892 636.221191,376.363892 
	C636.221191,380.105896 636.221191,383.645447 636.221191,387.694122 
	C632.553467,387.694122 629.278198,387.694122 625.554321,387.726868 
	C624.978821,387.367767 624.851868,386.975922 624.606262,386.298248 
z"/>
<path fill="#FDFDFD" opacity="1.000000" stroke="none" 
	d="
M654.457031,377.483948 
	C658.034912,376.558136 661.531433,376.072937 665.556030,375.514465 
	C665.556030,379.876099 665.556030,383.547363 665.556030,387.504028 
	C661.940857,387.504028 658.372620,387.504028 654.375671,387.504028 
	C654.375671,384.147583 654.375671,381.036102 654.457031,377.483948 
z"/>
<path fill="#FDFDFD" opacity="1.000000" stroke="none" 
	d="
M680.873413,364.331726 
	C680.889648,367.744049 680.889648,370.698242 680.889648,373.902649 
	C676.861816,373.902649 673.275757,373.902649 669.236877,373.902649 
	C669.236877,370.082520 669.236877,366.375305 669.236877,361.400299 
	C673.165894,362.236542 677.011597,363.055054 680.873413,364.331726 
z"/>
<path fill="#FDFDFD" opacity="1.000000" stroke="none" 
	d="
M616.027466,373.916199 
	C614.077637,373.916473 612.587952,373.916473 610.659851,373.916473 
	C610.659851,370.150635 610.659851,366.587036 610.659851,362.627197 
	C613.968445,362.627197 617.528931,362.627197 621.536255,362.627197 
	C621.536255,366.001587 621.536255,369.557129 621.536255,373.915955 
	C619.979736,373.915955 618.233704,373.915955 616.027466,373.916199 
z"/>
<path fill="#FDFDFD" opacity="1.000000" stroke="none" 
	d="
M639.917847,368.961975 
	C639.916931,366.678711 639.916931,364.865143 639.916931,362.655518 
	C643.592712,362.655518 646.970642,362.655518 650.786865,362.655518 
	C650.786865,366.159149 650.786865,369.703369 650.786865,373.621033 
	C647.534302,373.621033 644.133789,373.621033 640.256348,373.621033 
	C640.147339,372.267792 640.033081,370.849731 639.917847,368.961975 
z"/>
<path fill="#FDFDFD" opacity="1.000000" stroke="none" 
	d="
M631.909424,349.005188 
	C633.673645,349.076202 634.968628,349.147461 636.524902,349.233093 
	C636.524902,352.812317 636.524902,356.175232 636.524902,359.769165 
	C632.642090,359.769165 629.086426,359.769165 625.223511,359.769165 
	C625.223511,356.265198 625.223511,353.021362 625.223511,349.005432 
	C627.279419,349.005432 629.359802,349.005432 631.909424,349.005188 
z"/>
<path fill="#FDFDFD" opacity="1.000000" stroke="none" 
	d="
M654.669373,358.354462 
	C654.415466,355.163757 654.278992,352.407135 654.125854,349.313293 
	C658.192688,349.313293 661.746399,349.313293 665.704224,349.313293 
	C665.704224,352.695496 665.704224,356.068695 665.704224,360.686920 
	C662.003296,360.043396 658.395020,359.415985 654.669373,358.354462 
z"/>
<path fill="#F07E27" opacity="1.000000" stroke="none" 
	d="
M612.883118,476.759827 
	C611.474243,475.835510 610.407593,474.810852 609.340942,473.786194 
	C609.887939,473.254883 610.740295,472.177307 610.930725,472.283752 
	C611.934387,472.844757 612.938171,473.586823 613.590332,474.513458 
	C613.886780,474.934570 613.372131,475.926483 612.883118,476.759827 
z"/>
<path fill="#FDFDFD" opacity="1.000000" stroke="none" 
	d="
M588.381348,637.779724 
	C582.186890,637.781189 576.424622,637.781189 570.625122,637.781189 
	C571.177063,632.206177 574.043396,629.004456 578.715088,628.289062 
	C583.787842,627.512268 589.219910,630.071960 590.867249,634.067261 
	C591.706543,636.102722 592.285522,638.086243 588.381348,637.779724 
z"/>
<path fill="#FDFDFD" opacity="1.000000" stroke="none" 
	d="
M477.732727,653.278198 
	C474.771301,648.244568 476.276062,644.773071 481.468933,644.321411 
	C485.070007,644.008301 488.720276,644.261292 493.991821,644.261292 
	C492.472382,647.539368 491.924255,650.609741 490.095062,652.260620 
	C486.677521,655.345032 482.341949,655.718262 477.732727,653.278198 
z"/>
<path fill="#FDFDFD" opacity="1.000000" stroke="none" 
	d="
M636.424194,695.194214 
	C633.599854,697.911011 630.428772,698.582825 628.455139,695.640076 
	C627.300598,693.918640 627.439209,690.444702 628.431580,688.486816 
	C629.069275,687.228638 632.639709,686.366089 634.328613,686.954224 
	C638.075195,688.259094 637.962158,691.578247 636.424194,695.194214 
z"/>
<path fill="#FDFDFD" opacity="1.000000" stroke="none" 
	d="
M588.619019,686.309814 
	C590.219666,688.480896 592.072449,690.454468 592.438354,692.673157 
	C592.644043,693.920349 590.638184,696.399719 589.187134,696.827881 
	C587.466125,697.335693 584.747620,696.820251 583.438904,695.652710 
	C582.309143,694.644592 581.634094,691.470581 582.387634,690.377930 
	C583.665955,688.524353 586.227295,687.555481 588.619019,686.309814 
z"/>
<path fill="#FDFDFD" opacity="1.000000" stroke="none" 
	d="
M546.149292,694.161865 
	C548.561646,693.254089 550.810364,692.693176 553.059021,692.132324 
	C553.398438,692.745911 553.737915,693.359558 554.077332,693.973206 
	C552.707764,695.080078 551.430420,696.874817 549.939148,697.074951 
	C548.757385,697.233582 547.313232,695.437073 546.149292,694.161865 
z"/>
<path fill="#FDFDFD" opacity="1.000000" stroke="none" 
	d="
M366.729675,697.244507 
	C363.875671,694.919434 365.384094,693.678772 367.541260,692.990173 
	C369.068207,692.502808 370.772247,692.570129 372.386230,692.391113 
	C373.191284,696.914429 372.616272,697.441833 366.729675,697.244507 
z"/>
<path fill="#FDFDFD" opacity="1.000000" stroke="none" 
	d="
M510.895935,690.837219 
	C509.055176,690.778687 507.636444,690.715454 506.217682,690.652222 
	C506.000519,690.206482 505.783325,689.760742 505.566132,689.315002 
	C507.301941,688.273010 509.028168,686.432434 510.776184,686.411499 
	C512.556824,686.390076 514.358887,688.159058 516.151550,689.144104 
	C515.956787,689.595154 515.762024,690.046204 515.567200,690.497314 
	C514.150818,690.609070 512.734375,690.720825 510.895935,690.837219 
z"/>
<path fill="#FDFDFD" opacity="1.000000" stroke="none" 
	d="
M438.801453,690.617798 
	C437.645996,688.076599 438.423584,686.223083 440.895844,686.284180 
	C442.978119,686.335571 445.028992,687.658936 447.093750,688.419250 
	C446.963135,689.150635 446.832550,689.881958 446.701965,690.613342 
	C444.199127,690.613342 441.696259,690.613342 438.801453,690.617798 
z"/>
<path fill="#FDFDFD" opacity="1.000000" stroke="none" 
	d="
M401.114746,686.833435 
	C403.535553,688.955627 403.691284,690.440308 400.372223,690.727478 
	C398.403290,690.897827 396.407623,690.758789 393.925415,690.758789 
	C394.734924,686.227112 397.322815,685.740173 401.114746,686.833435 
z"/>
<path fill="#FDFDFD" opacity="1.000000" stroke="none" 
	d="
M696.973022,686.078003 
	C698.589355,686.856079 700.787903,687.538147 700.862976,688.404297 
	C701.081787,690.928711 701.269592,694.225647 699.875244,695.857239 
	C698.898621,697.000122 694.025757,696.804199 693.186707,695.603455 
	C691.950806,693.834778 692.424744,690.578247 692.876465,688.083313 
	C693.033569,687.215515 695.288391,686.727539 696.973022,686.078003 
z"/>
</svg>